<?xml version="1.0" standalone="no"?>
<!DOCTYPE svg PUBLIC "-//W3C//DTD SVG 20010904//EN"
 "http://www.w3.org/TR/2001/REC-SVG-20010904/DTD/svg10.dtd">
<svg version="1.0" xmlns="http://www.w3.org/2000/svg"
 width="403.000000pt" height="408.000000pt" viewBox="0 0 403.000000 408.000000"
 preserveAspectRatio="xMidYMid meet">

<g transform="translate(0.000000,408.000000) scale(0.100000,-0.100000)"
fill="#000000" stroke="none">
<path d="M2707 3506 c174 -131 298 -315 355 -527 32 -121 32 -337 0 -458 -45
-166 -118 -295 -238 -421 -122 -128 -270 -215 -445 -262 -121 -32 -337 -32
-458 0 -166 45 -295 118 -421 238 -128 122 -215 270 -262 445 -32 121 -32 337
0 459 28 105 96 246 155 326 45 59 156 171 212 212 29 22 29 22 3 13 -104 -38
-291 -154 -411 -256 -281 -239 -499 -620 -576 -1005 -125 -625 44 -1252 456
-1690 507 -539 1289 -634 1885 -228 304 206 544 531 667 903 264 796 -18 1696
-667 2132 -72 48 -288 163 -307 163 -4 0 19 -20 52 -44z"/>
</g>
</svg>
